# xmcd CD database file
# Copyright (C) 1997 Ti Kan
# 
# Track frame offsets:
#     182
#     11777
#     22875
#     35882
#     48817
#     59100
#     72927
#     86017
#     102067
#     117852
#     128060
# 
# Disc length: 1898 seconds
# 
# Revision: 1
# Processed by: cddbd v1.4b41PL1 Copyright (c) Steve Scherf et al.
# Submitted via: DiscPlay 4.0.3
# 
DISCID=9107680b
DTITLE=Royal Wade Kimes - Another Man's Sky
DYEAR=1900
DGENRE=
TTITLE0=Leave My Mama Out Of This
TTITLE1=Head Turnin' Look
TTITLE2=S On My Chest
TTITLE3=Courage Of Daniel
TTITLE4=Has Anybody In Here Seen My Wife
TTITLE5=A Lie
TTITLE6=Guardian Angel
TTITLE7=Another Man's Sky
TTITLE8=Wal*Mart Special
TTITLE9=Toenail Painted Babe
TTITLE10=Stay Tuned
EXTD=
EXTT0=
EXTT1=
EXTT2=
EXTT3=
EXTT4=
EXTT5=
EXTT6=
EXTT7=
EXTT8=
EXTT9=
EXTT10=
PLAYORDER=
